<?xml version="1.0" standalone="no"?>
<!DOCTYPE svg PUBLIC "-//W3C//DTD SVG 20010904//EN"
 "http://www.w3.org/TR/2001/REC-SVG-20010904/DTD/svg10.dtd">
<svg version="1.0" xmlns="http://www.w3.org/2000/svg"
 width="800.000000pt" height="800.000000pt" viewBox="0 0 800.000000 800.000000"
 preserveAspectRatio="xMidYMid meet">

<g transform="translate(0.000000,800.000000) scale(0.100000,-0.100000)"
fill="#000000" stroke="none">
<path d="M3866 6958 c-3 -13 -6 -1232 -6 -2709 l0 -2686 21 -26 c11 -15 37
-31 57 -36 98 -25 436 -31 1818 -31 l1438 0 -20 21 c-22 21 -42 25 -303 64
-57 8 -114 18 -125 20 -12 3 -73 12 -136 21 -333 44 -449 61 -575 79 -55 9
-147 22 -205 31 -276 40 -697 116 -885 159 -33 8 -75 17 -94 21 -128 24 -246
131 -339 307 -44 82 -60 147 -82 320 -43 342 -53 743 -46 1842 3 561 9 1255
12 1542 6 457 4 524 -9 543 -8 12 -55 65 -104 118 -48 53 -137 151 -198 217
-141 155 -191 205 -203 205 -5 0 -12 -10 -16 -22z"/>
<path d="M3497 5691 c-47 -54 -92 -105 -99 -112 -7 -8 -51 -59 -98 -113 l-85
-100 -6 -980 c-6 -875 -25 -1631 -44 -1751 -2 -16 -9 -88 -15 -160 -13 -154
-42 -324 -65 -380 -27 -63 -100 -168 -151 -214 -75 -70 -133 -90 -399 -136
-309 -55 -559 -92 -945 -140 -220 -28 -476 -61 -615 -80 -116 -16 -266 -43
-272 -49 -15 -14 262 -17 1462 -14 1059 3 1349 7 1382 17 65 20 78 41 78 125
-3 3890 -4 4186 -24 4186 -12 0 -52 -39 -104 -99z"/>
</g>
</svg>
